<?xml version="1.0" encoding="utf-8"?>
<svg xmlns="http://www.w3.org/2000/svg" xmlns:xlink="http://www.w3.org/1999/xlink" width="80px" height="20px" viewBox="0 0 80 20" version="1.1">
    
    <title>Group</title>
    <desc>Created with Sketch.</desc>
    <defs/>
    <g id="Teaser-site" stroke="none" stroke-width="1" fill="none" fill-rule="evenodd">
        <g id="Desktop-V3" transform="translate(-680.000000, -4880.000000)" fill-rule="nonzero" fill="#F4511C">
            <g id="Group" transform="translate(680.000000, 4880.000000)">
                <path d="M35.1443013,2.19689016 C33.780439,0.790460477 31.9307645,0.000499975001 30.0015757,0.000499975001 L19.3932195,0.000499975001 L19.3932195,19.9995 L26.6658586,19.9995 L26.6658586,7.50012499 L28.9979515,7.50012499 C29.640368,7.50012499 30.2585423,7.76361182 30.7133247,8.2320884 L33.2248094,10.820959 C33.6805614,11.2899355 33.9389826,11.9259037 33.9389826,12.5883706 L33.9389826,20 L41.2116217,20 L41.2116217,11.5529224 C41.2116217,9.5640218 40.4416916,7.65661717 39.0783142,6.25018749 L35.1443013,2.19689016 L35.1443013,2.19689016 Z M72.7263912,0.000499975001 L72.7263912,7.41112944 C72.7263912,8.0740963 72.4674852,8.7100645 72.0127029,9.17904105 L69.4992788,11.7674116 C69.0449813,12.2358882 68.4277766,12.499375 67.7853602,12.499375 L64.2920692,12.499375 C65.041151,11.299435 65.4542369,9.89550522 65.4542369,8.4460777 L65.4542369,0.000499975001 L58.1815978,0.000499975001 L58.1815978,7.41112944 C58.1815978,8.0740963 57.9226918,8.7100645 57.4679095,9.17904105 L54.9544854,11.7674116 C54.5001879,12.2358882 53.8829832,12.499375 53.2405668,12.499375 L50.9094435,12.499375 L50.9094435,0 L43.6368044,0 L43.6368044,19.999 L54.2451607,19.999 C56.1738646,19.999 58.0249936,19.2090395 59.3893407,17.8021099 L61.8184022,15.2982351 L61.8184022,19.999 L68.7904389,19.999 C70.7191428,19.999 72.5702719,19.2090395 73.934619,17.8021099 L77.8666925,13.7493125 C79.2300699,12.3428829 80,10.4344783 80,8.4460777 L80,0.000499975001 L72.7273609,0.000499975001 L72.7263912,0.000499975001 Z M0,7.50012499 L4.84842608,7.50012499 L4.84842608,19.9995 L12.1210652,19.9995 L12.1210652,7.50012499 L16.9694913,7.50012499 L16.9694913,0.000499975001 L0,0.000499975001 L0,7.50012499 Z" id="Shape"/>
            </g>
        </g>
    </g>
</svg>